<svg xmlns="http://www.w3.org/2000/svg" viewBox="0 0 29.97 29.97"><defs><style>.cls-1,.cls-2{fill:#fff;stroke:#fff;}.cls-1{stroke-miterlimit:10;stroke-width:0.75px;}</style></defs><g id="Calque_2" data-name="Calque 2"><g id="Calque_1-2" data-name="Calque 1"><circle class="cls-1" cx="14.99" cy="14.99" r="14.61" transform="translate(-3.04 3.84) rotate(-13.28)"/><path class="cls-2" d="M4,15.21a11,11,0,0,1,.67-3.79,10.79,10.79,0,0,1,2-3.4A9.4,9.4,0,0,1,9.8,5.58a9.59,9.59,0,0,1,4.26-.91A8.71,8.71,0,0,1,18.9,6a7.93,7.93,0,0,1,3,3.32l-1.64,1a6.31,6.31,0,0,0-1.73-2.22A6.68,6.68,0,0,0,16.28,6.9a8.35,8.35,0,0,0-2.34-.35,7.11,7.11,0,0,0-3.36.76,7.34,7.34,0,0,0-2.46,2,8.75,8.75,0,0,0-1.5,2.83,10.16,10.16,0,0,0-.51,3.17,9.74,9.74,0,0,0,.59,3.36,9.31,9.31,0,0,0,1.67,2.85,8.13,8.13,0,0,0,2.52,2,6.81,6.81,0,0,0,3.14.73,7.9,7.9,0,0,0,2.44-.41,7.71,7.71,0,0,0,2.34-1.29,6.28,6.28,0,0,0,1.74-2.23l1.73.89a6.67,6.67,0,0,1-2,2.68,9.75,9.75,0,0,1-3.05,1.67,10.22,10.22,0,0,1-3.29.57,8.63,8.63,0,0,1-4-.94,10.3,10.3,0,0,1-3.14-2.5,11.62,11.62,0,0,1-2-3.51A11.33,11.33,0,0,1,4,15.21Z"/></g></g></svg>