<svg xmlns="http://www.w3.org/2000/svg" viewBox="0 0 305.61 305.61"><defs><style>.cls-1{fill:#fff;}</style></defs><g id="Calque_2" data-name="Calque 2"><g id="Calque_1-2" data-name="Calque 1"><path d="M26.81,0h251.4c1.8.39,3.62.7,5.41,1.18,13.21,3.55,21.12,13.87,21.13,28.08q.08,123.3,0,246.6c0,6.44-1.56,12.53-5.59,17.82-6.19,8.12-14.66,11.08-24.47,11.09q-119.43,0-238.86,0c-3.66,0-7.32-.24-11-.5C13,303.43,3.48,294.34.9,282.77c-.34-1.51-.6-3-.9-4.56V26.81a12.14,12.14,0,0,0,.75-2.48C1.78,13,11.52,2.5,22.56.84,24,.63,25.39.28,26.81,0ZM167.62,130.82c0-4.07,0-7.22,0-10.38-.05-5.49-3.2-8.66-8.67-8.67q-16.68,0-33.36,0c-5.81,0-9,3.16-9,9q0,70.89,0,141.77c0,6.07,3.29,9.29,9.43,9.31q16.09,0,32.17,0c6.36,0,9.45-3.13,9.45-9.5q0-36.19,0-72.38a50.48,50.48,0,0,1,5-22.11c4.89-10.25,13.85-15.39,25.33-14.49,10.74.84,18.28,7.08,21,18.32a75.16,75.16,0,0,1,2.24,17c.23,24.61.09,49.24.09,73.86,0,6.31,3,9.28,9.27,9.29q16.68,0,33.36,0c6.25,0,9.54-3.21,9.54-9.54,0-25.52.08-51-.16-76.54-.11-11.79-.81-23.57-3.88-35.06-5.16-19.28-15.65-33.7-35.89-39.06a78.27,78.27,0,0,0-36.52-.53C185,113.64,175.26,119.88,167.62,130.82Zm-123.77,61v70c0,6.81,3.19,10,10,10q14.88,0,29.77,0c8.28,0,11.26-3,11.26-11.29q0-44.22,0-88.42,0-25.15,0-50.31c0-6.8-3.29-10-10-10.06H53.6c-6.67,0-9.75,3.11-9.75,9.84ZM102.09,66.07A32.87,32.87,0,1,0,69.14,99,33,33,0,0,0,102.09,66.07Z"/><path class="cls-1" d="M0,278.21c.3,1.52.56,3.05.9,4.56C3.48,294.34,13,303.43,24.83,304.25c3.66.26,7.32.5,11,.5q119.43,0,238.86,0c9.81,0,18.28-3,24.47-11.09,4-5.29,5.59-11.38,5.59-17.82q.09-123.3,0-246.6c0-14.21-7.92-24.53-21.13-28.08C281.83.7,280,.39,278.21,0h27.4V305.61H0Z"/><path class="cls-1" d="M26.81,0C25.39.28,24,.63,22.56.84,11.52,2.5,1.78,13,.75,24.33A12.14,12.14,0,0,1,0,26.81V0Z"/><path class="cls-1" d="M167.62,130.82c7.64-10.94,17.37-17.18,29.42-19.71a78.27,78.27,0,0,1,36.52.53c20.24,5.36,30.73,19.78,35.89,39.06,3.07,11.49,3.77,23.27,3.88,35.06.24,25.51.17,51,.16,76.54,0,6.33-3.29,9.53-9.54,9.54q-16.68,0-33.36,0c-6.3,0-9.26-3-9.27-9.29,0-24.62.14-49.25-.09-73.86a75.16,75.16,0,0,0-2.24-17c-2.76-11.24-10.3-17.48-21-18.32-11.48-.9-20.44,4.24-25.33,14.49a50.48,50.48,0,0,0-5,22.11q0,36.19,0,72.38c0,6.37-3.09,9.49-9.45,9.5q-16.08,0-32.17,0c-6.14,0-9.42-3.24-9.43-9.31q0-70.89,0-141.77c0-5.83,3.2-9,9-9q16.68,0,33.36,0c5.47,0,8.62,3.18,8.67,8.67C167.64,123.6,167.62,126.75,167.62,130.82Z"/><path class="cls-1" d="M43.85,191.85V121.6c0-6.73,3.08-9.83,9.75-9.84H84.86c6.72,0,10,3.26,10,10.06q0,25.16,0,50.31,0,44.2,0,88.42c0,8.3-3,11.29-11.26,11.29q-14.88,0-29.77,0c-6.8,0-10-3.22-10-10Z"/><path class="cls-1" d="M102.09,66.07a32.87,32.87,0,1,1-33-32.89A33,33,0,0,1,102.09,66.07Z"/></g></g></svg>