<svg xmlns="http://www.w3.org/2000/svg" viewBox="0 0 305.78 305.77"><defs><style>.cls-1{fill:#fff;}.cls-1,.cls-2{stroke:#fff;stroke-miterlimit:10;}.cls-2{fill:none;}</style></defs><g id="Calque_2" data-name="Calque 2"><g id="Calque_1-2" data-name="Calque 1"><path class="cls-1" d="M44.35,122.1v0Z"/><path class="cls-1" d="M305.25,29.76c0-14.21-7.92-24.53-21.14-28.08-1.78-.48-3.6-.79-5.4-1.18H27.31c-1.42.28-2.82.63-4.25.84C12,3,2.28,13.52,1.25,24.83A12.14,12.14,0,0,1,.5,27.31v251.4c.3,1.52.56,3.05.9,4.56C4,294.84,13.47,303.93,25.33,304.75c3.66.26,7.32.5,11,.5q119.43,0,238.86,0c9.81,0,18.28-3,24.47-11.09,4-5.29,5.59-11.38,5.59-17.82Q305.32,153.06,305.25,29.76ZM95.38,172.63q0,44.2,0,88.42c0,8.3-3,11.29-11.26,11.29q-14.88,0-29.77,0c-6.8,0-10-3.22-10-10V122.1c0-6.73,3.08-9.83,9.75-9.84H85.36c6.72,0,10,3.26,10,10.06Q95.4,147.48,95.38,172.63ZM69.64,99.52a32.92,32.92,0,1,1,33-32.95A33.24,33.24,0,0,1,69.64,99.52ZM274,262.8c0,6.33-3.29,9.53-9.54,9.54q-16.68,0-33.36,0c-6.3,0-9.26-3-9.27-9.29,0-24.62.14-49.25-.09-73.86a75.16,75.16,0,0,0-2.24-17c-2.76-11.24-10.3-17.48-21-18.32C187,153,178,158.1,173.12,168.35a50.48,50.48,0,0,0-5,22.11q0,36.19,0,72.38c0,6.37-3.09,9.49-9.45,9.5q-16.08,0-32.17,0c-6.14,0-9.42-3.24-9.43-9.31q0-70.89,0-141.77c0-5.83,3.2-9,9-9q16.68,0,33.36,0c5.47,0,8.62,3.18,8.67,8.67,0,3.16,0,6.31,0,10.38,7.64-10.94,17.37-17.18,29.42-19.71a78.27,78.27,0,0,1,36.52.53c20.24,5.36,30.73,19.78,35.89,39.06,3.07,11.49,3.77,23.27,3.88,35.06C274.07,211.77,274,237.28,274,262.8Z"/><path class="cls-2" d="M270,151.2c-5.16-19.28-15.65-33.7-35.89-39.06a78.27,78.27,0,0,0-36.52-.53c-12,2.53-21.78,8.77-29.42,19.71,0-4.07,0-7.22,0-10.38-.05-5.49-3.2-8.66-8.67-8.67q-16.68,0-33.36,0c-5.81,0-9,3.16-9,9q0,70.89,0,141.77c0,6.07,3.29,9.29,9.43,9.31q16.09,0,32.17,0c6.36,0,9.45-3.13,9.45-9.5q0-36.19,0-72.38a50.48,50.48,0,0,1,5-22.11C178,158.1,187,153,198.45,153.86c10.74.84,18.28,7.08,21,18.32a75.16,75.16,0,0,1,2.24,17c.23,24.61.09,49.24.09,73.86,0,6.31,3,9.28,9.27,9.29q16.68,0,33.36,0c6.25,0,9.54-3.21,9.54-9.54,0-25.52.08-51-.16-76.54C273.72,174.47,273,162.69,270,151.2Z"/><path class="cls-2" d="M85.36,112.26H54.1c-6.67,0-9.75,3.11-9.75,9.84V262.31c0,6.81,3.19,10,10,10q14.88,0,29.77,0c8.28,0,11.26-3,11.26-11.29q0-44.22,0-88.42,0-25.15,0-50.31C95.35,115.52,92.08,112.27,85.36,112.26Z"/><path class="cls-2" d="M69.6,33.68a32.92,32.92,0,1,0,33,32.89A33.17,33.17,0,0,0,69.6,33.68Z"/></g></g></svg>