<svg xmlns="http://www.w3.org/2000/svg" viewBox="0 0 304.78 304.77"><g id="Calque_2" data-name="Calque 2"><g id="Calque_1-2" data-name="Calque 1"><path d="M304.75,29.26c0-14.21-7.92-24.53-21.14-28.08C281.83.7,280,.39,278.21,0H26.81C25.39.28,24,.63,22.56.84,11.52,2.5,1.78,13,.75,24.33A12.14,12.14,0,0,1,0,26.81v251.4c.3,1.52.56,3.05.9,4.56C3.48,294.34,13,303.43,24.83,304.25c3.66.26,7.32.5,11,.5q119.43,0,238.86,0c9.81,0,18.28-3,24.47-11.09,4-5.29,5.59-11.38,5.59-17.82Q304.82,152.56,304.75,29.26ZM94.88,172.13q0,44.2,0,88.42c0,8.3-3,11.29-11.26,11.29q-14.88,0-29.77,0c-6.8,0-10-3.22-10-10V121.6c0-6.73,3.08-9.83,9.75-9.84H84.86c6.72,0,10,3.26,10,10.06Q94.9,147,94.88,172.13ZM69.14,99a32.92,32.92,0,1,1,33-32.95A33.24,33.24,0,0,1,69.14,99ZM273.49,262.3c0,6.33-3.29,9.53-9.54,9.54q-16.68,0-33.36,0c-6.3,0-9.26-3-9.27-9.29,0-24.62.14-49.25-.09-73.86a75.16,75.16,0,0,0-2.24-17c-2.76-11.24-10.3-17.48-21-18.32-11.48-.9-20.44,4.24-25.33,14.49a50.48,50.48,0,0,0-5,22.11q0,36.19,0,72.38c0,6.37-3.09,9.49-9.45,9.5q-16.08,0-32.17,0c-6.14,0-9.42-3.24-9.43-9.31q0-70.89,0-141.77c0-5.83,3.2-9,9-9q16.68,0,33.36,0c5.47,0,8.62,3.18,8.67,8.67,0,3.16,0,6.31,0,10.38,7.64-10.94,17.37-17.18,29.42-19.71a78.27,78.27,0,0,1,36.52.53c20.24,5.36,30.73,19.78,35.89,39.06,3.07,11.49,3.77,23.27,3.88,35.06C273.57,211.27,273.5,236.78,273.49,262.3Z"/></g></g></svg>