<svg xmlns="http://www.w3.org/2000/svg" viewBox="0 0 216.37 187.86"><defs><style>.cls-1{fill:none;}.cls-1,.cls-2{stroke:#fff;stroke-miterlimit:10;}.cls-2{fill:#fff;}</style></defs><g id="Calque_2" data-name="Calque 2"><g id="Calque_1-2" data-name="Calque 1"><path class="cls-1" d="M211.14,29.23c-3.81,0-7.62,0-11.44,0H187.15c0-3.73,0-7.09,0-10.45a3.5,3.5,0,0,0-3.5-3.84,22.39,22.39,0,0,0-2.46-.06q-39.6,0-79.19,0a3.11,3.11,0,0,1-3.4-2.08c-1.45-3.28-3.22-6.41-4.76-9.64A4.31,4.31,0,0,0,89.58.5q-24.45,0-48.9,0A4.45,4.45,0,0,0,36.3,3.34C34.78,6.58,33,9.72,31.55,13a2.86,2.86,0,0,1-3.06,1.93c-7.77-.08-15.55-.06-23.33,0C1.68,14.89.5,16.07.5,19.4q0,75,0,150.09a14.8,14.8,0,0,0,.22,2.9c1.8,9.11,9,15,18.53,15q63.71,0,127.42,0c17,0,33.95,0,50.92,0A17.94,17.94,0,0,0,215.86,169q0-67.53,0-135.06C215.87,30.41,214.74,29.27,211.14,29.23ZM17.73,36.59a3.28,3.28,0,0,0-2.86,3.24c0,.67,0,1.35,0,2V179.14c-4.16-1.28-6.79-4.84-7.15-9.47,0-.67,0-1.35,0-2V22.21c8.07,0,15.84-.07,23.6,0,2.67,0,4.36-.88,5.46-3.33,1.43-3.19,3.12-6.27,4.63-9.44a2.43,2.43,0,0,1,2.52-1.67q21.19.11,42.4,0a2.42,2.42,0,0,1,2.56,1.61c1.46,3.1,3.15,6.1,4.52,9.23,1.14,2.62,2.88,3.61,5.74,3.6,26-.08,51.9-.05,77.85-.05h2.85v7H96.25c-4.77,0-5.19.2-6.53,4.67-.59,2-1.5,2.58-3.59,2.57-21.83-.09-43.67-.06-65.5-.05A15.54,15.54,0,0,0,17.73,36.59Zm11.5,17.59c-.05.67,0,1.35,0,2q0,55.88,0,111.74c0,5.72-2.25,9.38-7,11.26V43.82H86.28a50.14,50.14,0,0,1-2,6c-.27.58-1.56.94-2.38.94-15.63.06-31.26,0-46.89.05a15.59,15.59,0,0,0-2.9.18A3.29,3.29,0,0,0,29.23,54.18ZM208.69,39.1q0,64.4,0,128.78c0,7.79-4.27,12.12-12,12.12h-161c-.73,0-1.46-.07-2.6-.12,2.87-4.16,3.42-8.41,3.41-12.93q-.1-52.95,0-105.89v-3H84.9c3.85,0,4.54-.51,5.77-4.23,1.66-5,3.4-10,5-15.08.52-1.68,1.25-2.28,3.11-2.28q43.52.1,87,0h22.91Z"/><path class="cls-2" d="M98.75,36.52c-1.86,0-2.59.6-3.11,2.28-1.57,5.05-3.31,10.06-5,15.08-1.23,3.72-1.92,4.23-5.77,4.23H36.39v3q0,52.95,0,105.89c0,4.52-.54,8.77-3.41,12.93,1.14.05,1.87.12,2.6.12h161c7.75,0,12-4.33,12-12.12q0-64.39,0-128.78V36.57H185.78Q142.27,36.57,98.75,36.52Z"/><path class="cls-2" d="M86.13,36.46c2.09,0,3-.6,3.59-2.57,1.34-4.47,1.76-4.67,6.53-4.67H179.8v-7H177c-25.95,0-51.9,0-77.85.05-2.86,0-4.6-1-5.74-3.6C92,15.53,90.3,12.53,88.84,9.43a2.42,2.42,0,0,0-2.56-1.61q-21.19.07-42.4,0a2.43,2.43,0,0,0-2.52,1.67c-1.51,3.17-3.2,6.25-4.63,9.44-1.1,2.45-2.79,3.37-5.46,3.33-7.76-.11-15.53,0-23.6,0V167.65c0,.67,0,1.35,0,2,.36,4.63,3,8.19,7.15,9.47V41.85c0-.67,0-1.35,0-2a3.28,3.28,0,0,1,2.86-3.24,15.54,15.54,0,0,1,2.9-.18C42.46,36.4,64.3,36.37,86.13,36.46Z"/><path class="cls-2" d="M81.89,50.72c.82,0,2.11-.36,2.38-.94a50.14,50.14,0,0,0,2-6H22.2V179.2c4.76-1.88,7-5.54,7-11.26q0-55.87,0-111.74c0-.67,0-1.35,0-2A3.29,3.29,0,0,1,32.1,51a15.59,15.59,0,0,1,2.9-.18C50.63,50.76,66.26,50.78,81.89,50.72Z"/></g></g></svg>